<svg width="141" height="130" viewBox="0 0 141 130" fill="none" xmlns="http://www.w3.org/2000/svg">
<path d="M70.4961 53.4961H68.6484C65.6289 53.6133 62.7734 54.9062 60.6797 57.1016C58.5859 59.3008 57.4141 62.2305 57.4141 65.2773C57.4141 68.3242 58.5859 71.2539 60.6797 73.4531C62.7734 75.6484 65.6289 76.9414 68.6484 77.0586H107.906C104.211 53.7266 70.4961 53.4961 70.4961 53.4961Z" fill="#C9BE17"/>
<path d="M65.1719 24.5663C71.0625 24.5624 76.8867 25.8398 82.2383 28.3124C87.5898 30.7773 92.3437 34.3827 96.1719 38.871C98.2226 41.1562 101.086 42.5507 104.145 42.7538C107.211 42.9531 110.227 41.9452 112.559 39.9413C114.891 37.9413 116.344 35.1054 116.613 32.039C116.883 28.9765 115.945 25.9296 114 23.5507C103.066 10.7226 87.543 2.71087 70.7773 1.2304C54.0078 -0.246163 37.3281 4.92571 24.3242 15.6367C11.3203 26.3476 3.02734 41.746 1.23046 58.5195C-0.566415 75.289 4.27343 92.1015 14.7148 105.336C2.66796 53.3476 35.2109 23.4609 65.1719 24.5663Z" fill="#FFF121"/>
<path d="M112.523 90.5546C111.348 89.5507 109.984 88.789 108.516 88.3124C107.043 87.832 105.492 87.6445 103.949 87.7656C102.406 87.8828 100.898 88.3046 99.5195 89.0039C98.1406 89.6992 96.9101 90.6601 95.9062 91.832C91.4414 97.0234 85.7344 101.016 79.3164 103.437C72.8945 105.859 65.9648 106.633 59.164 105.691C52.3633 104.746 45.9101 102.117 40.3984 98.0429C34.8867 93.9648 30.4961 88.5742 27.625 82.3671C24.7539 76.1562 23.5 69.3281 23.9765 62.5078C24.4492 55.6874 26.6406 49.0976 30.3437 43.3437C34.0508 37.5859 39.1484 32.8515 45.1719 29.5742C51.1953 26.2929 57.9531 24.5742 64.8164 24.5781C34.7695 23.4726 2.13279 53.2499 14.2148 105.102C20.1054 112.555 27.5859 118.609 36.1133 122.84C44.6406 127.07 54.0039 129.363 63.5273 129.559C73.0508 129.754 82.5 127.84 91.1953 123.965C99.8906 120.086 107.609 114.336 113.805 107.133C114.816 105.961 115.59 104.602 116.07 103.133C116.555 101.664 116.742 100.117 116.625 98.5781C116.504 97.0351 116.082 95.5351 115.379 94.1601C114.672 92.7812 113.703 91.5585 112.523 90.5546Z" fill="#C9BE17"/>
<path d="M128.07 53.5039H70.2031C70.2031 53.5039 103.957 53.7696 107.59 77.0508H128.07C129.645 77.1094 131.215 76.8516 132.688 76.2891C134.156 75.7227 135.5 74.8672 136.637 73.7696C137.77 72.668 138.672 71.3516 139.289 69.8906C139.906 68.4336 140.223 66.8633 140.223 65.2774C140.223 63.6914 139.906 62.1211 139.289 60.6641C138.672 59.2031 137.77 57.8867 136.637 56.7852C135.5 55.6875 134.156 54.8281 132.688 54.2656C131.215 53.7031 129.645 53.4414 128.07 53.5039Z" fill="#FFF121"/>
</svg>
